<svg width="2346" height="994" viewBox="0 0 2346 994" fill="none" xmlns="http://www.w3.org/2000/svg">
<path opacity="0.3" d="M1 1H2345.77M1 974.293H2345.77H1ZM1 866.15H2345.77H1ZM1 758.004H2345.77H1ZM1 649.862H2345.77H1ZM1 541.719H2345.77H1ZM1 433.573H2345.77H1ZM1 325.431H2345.77H1ZM1 217.288H2345.77H1ZM1 109.143H2345.77H1Z" stroke="black"/>
<path d="M160.169 993.926V974.457" stroke="black" stroke-width="2"/>
<path d="M74.4634 974.457V433.647H245.874V974.457" fill="#80F6FF"/>
<path d="M1933.07 992.998V973.529" stroke="black" stroke-width="2"/>
<path d="M1847.36 973.529V432.718H2018.77V973.529" fill="#80F6FF"/>
<path d="M405.039 993.926V974.457Z" fill="#80F6FF"/>
<path d="M405.039 993.926V974.457" stroke="black" stroke-width="2"/>
<path d="M319.334 974.457V325.486H490.744V974.457" fill="#80F6FF"/>
<path d="M2197.5 994V974.531Z" fill="#80F6FF"/>
<path d="M2197.5 994V974.531" stroke="black" stroke-width="2"/>
<path d="M2111.79 974.531V325.559H2283.2V974.531" fill="#80F6FF"/>
<path d="M649.912 993.926V974.457Z" fill="#80F6FF"/>
<path d="M649.912 993.926V974.457" stroke="black" stroke-width="2"/>
<path d="M564.207 974.457V217.325H735.617V974.457" fill="#80F6FF"/>
<path d="M1668.64 993.846V974.377Z" fill="#80F6FF"/>
<path d="M1668.64 993.846V974.377" stroke="black" stroke-width="2"/>
<path d="M1582.94 974.377V217.244H1754.35V974.377" fill="#80F6FF"/>
<path d="M564.207 974.457V217.325H735.617V974.457" fill="#80F6FF"/>
<path d="M894.786 993.926V974.457Z" fill="#80F6FF"/>
<path d="M894.786 993.926V974.457" stroke="black" stroke-width="2"/>
<path d="M809.081 974.457V541.81H980.491V974.457" fill="#80F6FF"/>
<path d="M1404.22 993.919V974.45Z" fill="#80F6FF"/>
<path d="M1404.22 993.919V974.45" stroke="black" stroke-width="2"/>
<path d="M1318.51 974.45V541.804H1489.92V974.45" fill="#80F6FF"/>
<path d="M1139.66 993.926V974.457Z" fill="#80F6FF"/>
<path d="M1139.66 993.926V974.457" stroke="black" stroke-width="2"/>
<path d="M1053.95 974.457V109.161H1225.36V974.457" fill="#80F6FF"/>
<path d="M1 974.293H2345.77H1ZM1 974.293V1Z" fill="#80F6FF"/>
<path d="M1 974.293V1M1 974.293H2345.77H1Z" stroke="black" stroke-width="2"/>
</svg>
